<svg xmlns="http://www.w3.org/2000/svg" xmlns:xlink="http://www.w3.org/1999/xlink" width="271" height="30" viewBox="0 0 271 30">
  <defs>
    <clipPath id="clip-path">
      <rect width="24" height="30" fill="none"/>
    </clipPath>
  </defs>
  <g id="Group_1171" data-name="Group 1171" transform="translate(-83 -1127)">
    <g id="Instagram" transform="translate(247 1127)" clip-path="url(#clip-path)">
      <path id="Path_3" data-name="Path 3" d="M11.847,2.106a36.325,36.325,0,0,1,4.739.132,6.105,6.105,0,0,1,2.238.395A4.623,4.623,0,0,1,21.061,4.87a6.105,6.105,0,0,1,.395,2.238c0,1.185.132,1.58.132,4.739a36.325,36.325,0,0,1-.132,4.739,6.105,6.105,0,0,1-.395,2.238,4.623,4.623,0,0,1-2.238,2.238,6.105,6.105,0,0,1-2.238.395c-1.185,0-1.58.132-4.739.132a36.325,36.325,0,0,1-4.739-.132,6.105,6.105,0,0,1-2.238-.395,4.623,4.623,0,0,1-2.238-2.238,6.105,6.105,0,0,1-.395-2.238c0-1.185-.132-1.58-.132-4.739a36.325,36.325,0,0,1,.132-4.739A6.105,6.105,0,0,1,2.633,4.87a4.728,4.728,0,0,1,.921-1.316A2.226,2.226,0,0,1,4.87,2.633a6.105,6.105,0,0,1,2.238-.395,36.325,36.325,0,0,1,4.739-.132m0-2.106a38.894,38.894,0,0,0-4.87.132,8.127,8.127,0,0,0-2.9.527A5.153,5.153,0,0,0,1.974,1.974,5.153,5.153,0,0,0,.658,4.081a6,6,0,0,0-.527,2.9A38.894,38.894,0,0,0,0,11.847a38.894,38.894,0,0,0,.132,4.87,8.127,8.127,0,0,0,.527,2.9,5.153,5.153,0,0,0,1.316,2.106,5.153,5.153,0,0,0,2.106,1.316,8.126,8.126,0,0,0,2.9.527,38.894,38.894,0,0,0,4.87.132,38.894,38.894,0,0,0,4.87-.132,8.127,8.127,0,0,0,2.9-.527,5.523,5.523,0,0,0,3.422-3.422,8.126,8.126,0,0,0,.527-2.9c0-1.316.132-1.711.132-4.87a38.894,38.894,0,0,0-.132-4.87,8.127,8.127,0,0,0-.527-2.9,5.153,5.153,0,0,0-1.316-2.106A5.153,5.153,0,0,0,19.613.658a8.127,8.127,0,0,0-2.9-.527A38.894,38.894,0,0,0,11.847,0m0,5.792a5.958,5.958,0,0,0-6.055,6.055,6.055,6.055,0,1,0,6.055-6.055m0,10A3.879,3.879,0,0,1,7.9,11.847,3.879,3.879,0,0,1,11.847,7.9,3.879,3.879,0,0,1,15.8,11.847,3.879,3.879,0,0,1,11.847,15.8M18.165,4.081a1.448,1.448,0,1,0,1.448,1.448,1.461,1.461,0,0,0-1.448-1.448" fill="#f2f2f2" fill-rule="evenodd"/>
    </g>
    <g id="Facebook" transform="translate(83 1127)">
      <rect id="Rectangle_392" data-name="Rectangle 392" width="24" height="30" transform="translate(0)" fill="none"/>
      <path id="Path_1" data-name="Path 1" d="M88.03,23.694V12.9h3.686l.527-4.212H88.03V6.055c0-1.185.395-2.106,2.106-2.106h2.238V.132C91.847.132,90.531,0,89.083,0c-3.159,0-5.4,1.974-5.4,5.529V8.688H80V12.9h3.686V23.694Z" transform="translate(-74.076 0.001)" fill="#f2f2f2" fill-rule="evenodd"/>
    </g>
    <g id="Twitter" transform="translate(166 1127)">
      <rect id="Rectangle_393" data-name="Rectangle 393" width="24" height="30" transform="translate(0)" fill="none"/>
      <path id="Path_2" data-name="Path 2" d="M45.5,21.218A13.7,13.7,0,0,0,59.325,7.4V6.739a10.7,10.7,0,0,0,2.369-2.5,10.927,10.927,0,0,1-2.764.79,5.121,5.121,0,0,0,2.106-2.633A12.074,12.074,0,0,1,58.008,3.58,4.7,4.7,0,0,0,54.454,2a4.946,4.946,0,0,0-4.87,4.87,2.566,2.566,0,0,0,.132,1.053,13.609,13.609,0,0,1-10-5.134,5.041,5.041,0,0,0-.658,2.5,5.23,5.23,0,0,0,2.106,4.081,4.438,4.438,0,0,1-2.238-.658h0a4.811,4.811,0,0,0,3.949,4.739,4.058,4.058,0,0,1-1.316.132,2.24,2.24,0,0,1-.921-.132,4.987,4.987,0,0,0,4.607,3.422,9.939,9.939,0,0,1-6.055,2.106A3.644,3.644,0,0,1,38,18.849a12.425,12.425,0,0,0,7.5,2.369" transform="translate(-38 0.961)" fill="#f2f2f2" fill-rule="evenodd"/>
    </g>
    <g id="Web" transform="translate(330 1127)" clip-path="url(#clip-path)">
      <path id="Path_4" data-name="Path 4" d="M3.554,3.554A10.755,10.755,0,0,1,11.847,0,10.755,10.755,0,0,1,20.14,3.554a10.755,10.755,0,0,1,3.554,8.293A10.755,10.755,0,0,1,20.14,20.14a10.755,10.755,0,0,1-8.293,3.554A10.755,10.755,0,0,1,3.554,20.14,11.823,11.823,0,0,1,0,11.847,10.755,10.755,0,0,1,3.554,3.554Zm9.872,17.77q1.185,0,2.962-1.777A8.624,8.624,0,0,0,17.77,15.4a3.27,3.27,0,0,0-.987-2.369,3.476,3.476,0,0,0-2.567-1.185H12.242a5.765,5.765,0,0,1-1.777-.395,1.793,1.793,0,0,1-.592-1.382,1.026,1.026,0,0,1,.395-.79,1.5,1.5,0,0,1,.79-.395,1.348,1.348,0,0,1,.987.592c.395.2.592.395.79.395a1.187,1.187,0,0,0,.79-.2,1.187,1.187,0,0,0,.2-.79,3.142,3.142,0,0,0-.987-1.974,8.167,8.167,0,0,0,.987-3.752.425.425,0,0,0-.395-.395,6.1,6.1,0,0,0-1.58-.395,9.877,9.877,0,0,0-5.134,1.58A4.971,4.971,0,0,0,4.936,7.9a5.056,5.056,0,0,0,1.58,3.752,5.394,5.394,0,0,0,3.752,1.58h0v.79a2.535,2.535,0,0,0,.79,1.975,2.875,2.875,0,0,0,1.777,1.185v3.554c0,.2,0,.2.2.395S13.229,21.325,13.427,21.325Z" fill="#f2f2f2"/>
    </g>
  </g>
</svg>
