<svg xmlns="http://www.w3.org/2000/svg" width="17.154" height="11.436" viewBox="0 0 17.154 11.436">
  <g id="united-states-of-america" transform="translate(0 0)">
    <rect id="Rectangle_5" data-name="Rectangle 5" width="17.154" height="11.436" transform="translate(0 0)" fill="#f0f0f0"/>
    <g id="Group_13" data-name="Group 13" transform="translate(0 1.429)">
      <rect id="Rectangle_6" data-name="Rectangle 6" width="17.154" height="1.429" transform="translate(0 0)" fill="#d80027"/>
      <rect id="Rectangle_7" data-name="Rectangle 7" width="17.154" height="1.429" transform="translate(0 2.859)" fill="#d80027"/>
      <rect id="Rectangle_8" data-name="Rectangle 8" width="17.154" height="1.429" transform="translate(0 5.718)" fill="#d80027"/>
      <rect id="Rectangle_9" data-name="Rectangle 9" width="17.154" height="1.429" transform="translate(0 8.577)" fill="#d80027"/>
    </g>
    <rect id="Rectangle_10" data-name="Rectangle 10" width="8.577" height="6.158" transform="translate(0 0)" fill="#2e52b2"/>
    <g id="Group_14" data-name="Group 14" transform="translate(0.871 0.989)">
      <path id="Path_10" data-name="Path 10" d="M82.948,160.624l-.138.425h-.447l.362.262-.138.425.362-.263.361.263-.138-.425.362-.262h-.447Z" transform="translate(-80.475 -159.09)" fill="#f0f0f0"/>
      <path id="Path_11" data-name="Path 11" d="M83.086,206.822l-.138-.425-.138.425h-.447l.362.263-.138.425.362-.263.361.263-.138-.425.362-.263Z" transform="translate(-80.475 -203.33)" fill="#f0f0f0"/>
      <path id="Path_12" data-name="Path 12" d="M26.724,206.822l-.138-.425-.138.425H26l.362.263-.138.425.362-.263.361.263-.138-.425.361-.263Z" transform="translate(-26.001 -203.33)" fill="#f0f0f0"/>
      <path id="Path_13" data-name="Path 13" d="M26.586,160.624l-.138.425H26l.362.262-.138.425.362-.263.361.263-.138-.425.361-.262h-.447Z" transform="translate(-26.001 -159.09)" fill="#f0f0f0"/>
      <path id="Path_14" data-name="Path 14" d="M82.948,114.85l-.138.425h-.447l.362.263-.138.425.362-.263.361.263-.138-.425.362-.263h-.447Z" transform="translate(-80.475 -114.85)" fill="#f0f0f0"/>
      <path id="Path_15" data-name="Path 15" d="M26.586,114.85l-.138.425H26l.362.263-.138.425.362-.263.361.263-.138-.425.361-.263h-.447Z" transform="translate(-26.001 -114.85)" fill="#f0f0f0"/>
      <path id="Path_16" data-name="Path 16" d="M139.31,160.624l-.138.425h-.447l.362.262-.138.425.361-.263.361.263-.138-.425.362-.262h-.447Z" transform="translate(-134.948 -159.09)" fill="#f0f0f0"/>
      <path id="Path_17" data-name="Path 17" d="M139.448,206.822l-.138-.425-.138.425h-.447l.362.263-.138.425.361-.263.361.263-.138-.425.362-.263Z" transform="translate(-134.948 -203.33)" fill="#f0f0f0"/>
      <path id="Path_18" data-name="Path 18" d="M195.811,206.822l-.138-.425-.138.425h-.447l.361.263-.138.425.362-.263.361.263-.138-.425.362-.263Z" transform="translate(-189.423 -203.33)" fill="#f0f0f0"/>
      <path id="Path_19" data-name="Path 19" d="M195.673,160.624l-.138.425h-.447l.361.262-.138.425.362-.263.361.263-.138-.425.362-.262h-.447Z" transform="translate(-189.423 -159.09)" fill="#f0f0f0"/>
      <path id="Path_20" data-name="Path 20" d="M139.31,114.85l-.138.425h-.447l.362.263-.138.425.361-.263.361.263-.138-.425.362-.263h-.447Z" transform="translate(-134.948 -114.85)" fill="#f0f0f0"/>
      <path id="Path_21" data-name="Path 21" d="M195.673,114.85l-.138.425h-.447l.361.263-.138.425.362-.263.361.263-.138-.425.362-.263h-.447Z" transform="translate(-189.423 -114.85)" fill="#f0f0f0"/>
    </g>
  </g>
</svg>
